<svg width="67" height="76" viewBox="0 0 67 76" fill="none" xmlns="http://www.w3.org/2000/svg">
<path d="M46.5487 31.6202C46.5919 31.3475 46.4058 31.0914 46.133 31.0482L41.6884 30.3442C41.4157 30.301 41.1596 30.4871 41.1164 30.7598C41.0732 31.0326 41.2593 31.2887 41.532 31.3319L45.4828 31.9576L44.857 35.9084C44.8138 36.1811 44.9999 36.4373 45.2726 36.4805C45.5454 36.5237 45.8015 36.3376 45.8447 36.0648L46.5487 31.6202ZM23.6962 48.4045L46.3487 31.9465L45.7609 31.1375L23.1085 47.5955L23.6962 48.4045Z" fill="black"/>
<path d="M58.0682 40.5006C58.1313 39.9408 58.2684 39.4199 58.4797 38.9377C58.6996 38.4565 58.9462 38.0873 59.2193 37.8301L59.8963 38.3244C59.6585 38.5769 59.4379 38.9097 59.2343 39.323C59.0394 39.7372 58.9153 40.1812 58.862 40.6549C58.7892 41.3008 58.8359 41.7769 59.002 42.0833C59.1767 42.3906 59.432 42.5631 59.7679 42.6007C60.0177 42.6286 60.2207 42.5685 60.3769 42.4203C60.5408 42.2816 60.6717 42.087 60.7697 41.8363C60.8763 41.5866 60.9734 41.3053 61.061 40.9925C61.1486 40.6796 61.2447 40.3677 61.3495 40.0568C61.4533 39.7544 61.5844 39.4813 61.7427 39.2374C61.9096 38.9944 62.1185 38.8042 62.3695 38.6666C62.6195 38.5376 62.9383 38.4947 63.3259 38.5381C63.6962 38.5795 64.0162 38.72 64.2858 38.9595C64.5553 39.1989 64.7496 39.5259 64.8687 39.9404C64.9953 40.3644 65.0262 40.8649 64.9612 41.442C64.9117 41.8812 64.802 42.3137 64.6319 42.7394C64.4705 43.1661 64.279 43.5109 64.0575 43.7739L63.3662 43.2911C63.6069 43.0128 63.7897 42.7062 63.9146 42.3713C64.0481 42.0375 64.1343 41.6983 64.1731 41.3538C64.242 40.7423 64.1852 40.2781 64.0029 39.9612C63.8282 39.6539 63.5772 39.4819 63.2499 39.4453C62.9915 39.4164 62.7804 39.4712 62.6165 39.6099C62.4516 39.7571 62.3116 39.9551 62.1964 40.2038C62.0888 40.4621 61.9917 40.7434 61.9051 41.0477C61.8175 41.3606 61.7176 41.6677 61.6051 41.969C61.5003 42.28 61.3688 42.5574 61.2105 42.8013C61.0599 43.0548 60.8595 43.246 60.6095 43.375C60.3672 43.5136 60.0608 43.5622 59.6904 43.5208C59.2942 43.4764 58.9623 43.3259 58.6947 43.0692C58.4347 42.8221 58.2467 42.4784 58.1306 42.0381C58.0221 41.6074 58.0013 41.0949 58.0682 40.5006Z" fill="black"/>
<path d="M62.7487 50.1166C62.5416 50.6312 62.2599 51.0412 61.9034 51.3467C61.5517 51.6635 61.131 51.8499 60.6413 51.9062C60.1483 51.9704 59.5961 51.8803 58.9845 51.6358L55.3028 50.1638L55.6474 49.3076L59.2445 50.7457C59.9125 51.0127 60.4834 51.045 60.9572 50.8424C61.4359 50.6511 61.7966 50.254 62.0392 49.651C62.2204 49.2007 62.2864 48.7697 62.2372 48.3581C62.1928 47.9576 62.0348 47.5958 61.7632 47.2725C61.4964 46.9605 61.1215 46.708 60.6387 46.5149L57.3071 45.183L57.6517 44.3267L66.6084 47.9076L66.2638 48.7639L61.9062 47.0217L62.3 46.9831C62.6778 47.3675 62.9065 47.8323 62.9861 48.3775C63.0737 48.9258 62.9946 49.5056 62.7487 50.1166Z" fill="black"/>
<path d="M52.8734 53.3089C53.2902 52.7989 53.7803 52.4321 54.3436 52.2085C54.9081 51.9971 55.4882 51.9378 56.0839 52.0307C56.6862 52.1291 57.2498 52.3913 57.7746 52.8174C58.3061 53.249 58.6777 53.7461 58.8894 54.3088C59.1012 54.8714 59.1569 55.447 59.0566 56.0354C58.9563 56.6237 58.695 57.1763 58.2727 57.693C57.8449 58.2164 57.3521 58.5866 56.7943 58.8035C56.231 59.0271 55.6543 59.0891 55.0641 58.9895C54.4685 58.8966 53.9049 58.6343 53.3734 58.2027C52.8486 57.7766 52.477 57.2795 52.2585 56.7114C52.0413 56.1554 51.9822 55.5772 52.0813 54.9766C52.1871 54.3815 52.4511 53.8256 52.8734 53.3089ZM53.5092 53.8252C53.1966 54.2077 53.0038 54.6149 52.9306 55.0467C52.8643 55.484 52.9173 55.9122 53.0896 56.3313C53.2633 56.7625 53.5553 57.1447 53.9657 57.478C54.3828 57.8167 54.8174 58.0245 55.2695 58.1013C55.7161 58.1848 56.1442 58.1472 56.5537 57.9885C56.9699 57.8353 57.3316 57.5708 57.6387 57.195C57.9459 56.8192 58.1326 56.4127 58.199 55.9754C58.2721 55.5435 58.2252 55.1147 58.0583 54.6889C57.8914 54.2631 57.5994 53.8809 57.1823 53.5422C56.7719 53.2089 56.3372 53.0012 55.8784 52.9189C55.4264 52.8421 54.9922 52.8803 54.576 53.0335C54.1664 53.1922 53.8109 53.4561 53.5092 53.8252Z" fill="black"/>
<path d="M46.853 58.7618C47.3436 58.4353 47.8621 58.2516 48.4084 58.2108C48.9596 58.1771 49.4965 58.2935 50.0192 58.5599C50.5394 58.8383 51.0069 59.2871 51.4217 59.9064C51.8365 60.5257 52.0707 61.1245 52.1244 61.703C52.1829 62.2887 52.0885 62.8252 51.8411 63.3125C51.5938 63.7998 51.2212 64.2091 50.7234 64.5404C50.1822 64.9005 49.6168 65.0998 49.0272 65.1382C48.4351 65.1887 47.8693 65.0759 47.3298 64.7999C46.7951 64.5311 46.3373 64.1123 45.9563 63.5434C45.5704 62.9674 45.3555 62.3817 45.3114 61.7864C45.2674 61.1911 45.3798 60.627 45.6487 60.0941C45.9104 59.566 46.3119 59.1219 46.853 58.7618ZM48.4186 54.7686L53.6202 62.5346L52.8842 63.0244L51.7412 61.3178L51.0573 60.1333L50.1823 59.0604L47.6502 55.28L48.4186 54.7686ZM47.3629 59.4063C46.9588 59.6751 46.6584 60.0052 46.4615 60.3965C46.2694 60.795 46.1905 61.2222 46.2247 61.6783C46.2638 62.1416 46.4305 62.5928 46.7247 63.0321C47.0189 63.4713 47.3707 63.7941 47.7801 64.0005C48.1896 64.2069 48.6157 64.2981 49.0586 64.2741C49.5015 64.25 49.9249 64.1036 50.329 63.8347C50.733 63.5658 51.0347 63.2298 51.234 62.8265C51.426 62.428 51.5049 62.0007 51.4707 61.5446C51.4292 61.0934 51.2614 60.6481 50.9672 60.2089C50.673 59.7696 50.3223 59.4408 49.9153 59.2224C49.5058 59.016 49.0797 58.9248 48.6368 58.9489C48.1916 58.9849 47.7669 59.1374 47.3629 59.4063Z" fill="black"/>
<path d="M38.0059 69.3223C37.4578 69.4071 36.9615 69.3743 36.517 69.2238C36.0654 69.0832 35.6906 68.8168 35.3926 68.4244C35.0861 68.0333 34.8822 67.5124 34.7808 66.8616L34.1706 62.9438L35.0828 62.8026L35.679 66.6305C35.7897 67.3413 36.0529 67.8486 36.4686 68.1526C36.8771 68.4665 37.4026 68.5738 38.0449 68.4744C38.5245 68.4001 38.9289 68.2367 39.2579 67.9841C39.5797 67.7414 39.8104 67.4206 39.9501 67.0219C40.0825 66.6331 40.1087 66.1818 40.0286 65.668L39.4765 62.1227L40.3886 61.9816L41.439 68.7253L40.5654 68.8605L40.2773 67.0108L40.4726 67.3357C40.3345 67.857 40.0513 68.291 39.6229 68.638C39.1958 68.9935 38.6569 69.2216 38.0059 69.3223Z" fill="black"/>
<path d="M30.1248 62.4809C30.7765 62.5766 31.3423 62.8087 31.8222 63.177C32.2923 63.5527 32.6394 64.0198 32.8634 64.5783C33.0862 65.1453 33.1481 65.7632 33.0492 66.432C32.9491 67.1093 32.7109 67.6831 32.3347 68.1534C31.9585 68.6237 31.4916 68.9668 30.9341 69.1827C30.3765 69.3986 29.7676 69.4581 29.1073 69.3611C28.4385 69.2628 27.8684 69.0301 27.397 68.663C26.9171 68.2947 26.5694 67.8319 26.3539 67.2746C26.1299 66.7161 26.0679 66.0982 26.1681 65.4209C26.267 64.7522 26.5052 64.1784 26.8826 63.6995C27.2502 63.228 27.7178 62.8806 28.2852 62.6573C28.8513 62.4427 29.4645 62.3839 30.1248 62.4809ZM30.005 63.2911C29.5162 63.2193 29.0674 63.2628 28.6584 63.4217C28.2481 63.5892 27.9067 63.8544 27.634 64.2172C27.3514 64.5874 27.1715 65.034 27.0942 65.557C27.0156 66.0886 27.0586 66.5679 27.2232 66.995C27.3792 67.4209 27.63 67.7687 27.9756 68.0385C28.3199 68.3168 28.7322 68.4913 29.2124 68.5618C29.6925 68.6324 30.1378 68.5839 30.548 68.4165C30.957 68.2576 31.3021 67.9973 31.5834 67.6357C31.8646 67.274 32.0446 66.8275 32.1232 66.2959C32.2005 65.7729 32.1575 65.2936 31.9942 64.8579C31.8295 64.4307 31.5751 64.078 31.2308 63.7997C30.8852 63.5299 30.4766 63.3604 30.005 63.2911Z" fill="black"/>
<path d="M24.4335 61.3169L23.4376 68.5363L22.6598 68.1161L23.6256 61.4419L23.9802 61.6335L18.8397 66.0521L18.1421 65.6752L19.0735 58.9825L19.4281 59.1741L14.3105 63.6051L13.5671 63.2034L19.1036 58.4373L19.8699 58.8513L19.0385 65.1695L18.7983 65.0398L23.6672 60.9029L24.4335 61.3169Z" fill="black"/>
<path d="M13.5115 52.7163C13.8419 53.1725 14.0912 53.6498 14.2594 54.148C14.4206 54.6513 14.4865 55.0896 14.4573 55.463L13.6224 55.5512C13.6285 55.2051 13.5679 54.8111 13.4403 54.369C13.3058 53.932 13.0987 53.5204 12.8191 53.1344C12.4378 52.6079 12.0824 52.2871 11.7529 52.1719C11.4163 52.0617 11.1108 52.1053 10.8365 52.3027C10.6325 52.4495 10.5225 52.6301 10.5065 52.8445C10.4784 53.0569 10.5125 53.2886 10.6087 53.5397C10.6979 53.7958 10.8154 54.0689 10.9613 54.359C11.1071 54.6491 11.246 54.9442 11.3778 55.2444C11.5045 55.5376 11.5913 55.8275 11.6383 56.114C11.6783 56.4055 11.6516 56.6863 11.5582 56.9564C11.4598 57.2194 11.2522 57.4648 10.9357 57.6926C10.6332 57.9102 10.3013 58.0209 9.94014 58.0245C9.57895 58.0281 9.21461 57.9166 8.84712 57.6899C8.4675 57.4612 8.1074 57.1117 7.76682 56.6414C7.50757 56.2834 7.29757 55.89 7.13681 55.4612C6.96901 55.0374 6.87862 54.654 6.86564 54.311L7.7035 54.2046C7.71258 54.5718 7.78361 54.921 7.91659 55.2524C8.04254 55.5889 8.20718 55.8975 8.41052 56.1783C8.77143 56.6766 9.12624 56.9819 9.47495 57.094C9.81154 57.2042 10.1135 57.1631 10.3808 56.9707C10.5919 56.8189 10.7114 56.6367 10.7395 56.4243C10.7625 56.2049 10.733 55.9646 10.6508 55.7034C10.5566 55.4403 10.439 55.1672 10.2982 54.8841C10.1524 54.594 10.0196 54.2998 9.89989 54.0016C9.76809 53.7014 9.6787 53.408 9.63172 53.1215C9.57263 52.8331 9.5923 52.5573 9.69075 52.2943C9.77707 52.0293 9.97149 51.788 10.274 51.5704C10.5976 51.3375 10.9451 51.2263 11.3164 51.2367C11.6757 51.2452 12.0467 51.3733 12.4294 51.621C12.8 51.8669 13.1607 52.2319 13.5115 52.7163Z" fill="black"/>
<path d="M3.56482 48.7561C3.37136 48.2362 3.3037 47.7438 3.36182 47.2788C3.4088 46.8087 3.5947 46.3888 3.91952 46.0192C4.24133 45.6415 4.71112 45.3384 5.32891 45.11L9.04784 43.7349L9.36976 44.6L5.73619 45.9435C5.0615 46.193 4.61693 46.5514 4.40247 47.0188C4.17687 47.481 4.17742 48.0167 4.40413 48.6259C4.5734 49.0808 4.815 49.4442 5.12892 49.7162C5.43168 49.9831 5.7926 50.1454 6.21166 50.2029C6.61957 50.2554 7.06739 50.1915 7.55512 50.0111L10.9204 48.7668L11.2424 49.6318L2.19501 52.9771L1.87309 52.112L6.27483 50.4845L6.00909 50.7768C5.47018 50.7451 4.98754 50.5539 4.56117 50.2034C4.12666 49.8558 3.79455 49.3734 3.56482 48.7561Z" fill="black"/>
<path d="M8.71139 39.8036C8.74707 40.4613 8.63211 41.0621 8.36651 41.6058C8.09178 42.1414 7.70301 42.5746 7.2002 42.9055C6.68873 43.2368 6.09548 43.4207 5.42046 43.457C4.73679 43.4939 4.12711 43.3749 3.59143 43.1C3.05576 42.8251 2.62671 42.4359 2.30431 41.9326C1.9819 41.4292 1.80262 40.8443 1.76647 40.178C1.72985 39.5029 1.84458 38.8979 2.11065 38.3628C2.37625 37.819 2.7607 37.3861 3.26398 37.0638C3.7668 36.733 4.36004 36.5491 5.04372 36.5123C5.71874 36.4759 6.32841 36.5949 6.87274 36.8693C7.40795 37.1356 7.84132 37.5245 8.17285 38.0361C8.49573 38.5481 8.67524 39.1373 8.71139 39.8036ZM7.89358 39.8477C7.86682 39.3544 7.73493 38.9232 7.49793 38.5541C7.25226 38.1855 6.92452 37.9037 6.51469 37.7088C6.09574 37.5057 5.62232 37.4184 5.09442 37.4469C4.55786 37.4758 4.09664 37.6135 3.71076 37.86C3.32441 38.0978 3.03339 38.4129 2.83769 38.8053C2.63334 39.1982 2.54431 39.637 2.5706 40.1216C2.59689 40.6062 2.73287 41.0328 2.97853 41.4015C3.21554 41.7706 3.53919 42.0569 3.94949 42.2605C4.35978 42.464 4.83321 42.5513 5.36976 42.5224C5.89766 42.494 6.35888 42.3563 6.75342 42.1094C7.1393 41.8629 7.43442 41.5432 7.63877 41.1503C7.83446 40.7579 7.9194 40.3237 7.89358 39.8477Z" fill="black"/>
<path d="M9.47643 31.7089C9.33267 32.2805 9.07233 32.7648 8.69541 33.1619C8.31008 33.557 7.83449 33.8312 7.26865 33.9846C6.69651 34.1274 6.0489 34.1085 5.3258 33.9278C4.60271 33.7471 4.02694 33.4603 3.59852 33.0674C3.16168 32.6724 2.87108 32.2111 2.7267 31.6837C2.58232 31.1563 2.58307 30.6027 2.72894 30.0227C2.88749 29.3923 3.17207 28.8649 3.58268 28.4405C3.98699 28.0055 4.48153 27.7093 5.0663 27.5517C5.64267 27.392 6.26297 27.3951 6.92721 27.5611C7.59985 27.7292 8.15248 28.0192 8.58509 28.431C9.01769 28.8429 9.31351 29.3367 9.47254 29.9124C9.63369 30.4797 9.63498 31.0786 9.47643 31.7089ZM11.0008 35.7212L1.93263 33.4551L2.14827 32.5978L4.14098 33.0957L5.44306 33.5149L6.81166 33.723L11.2259 34.8261L11.0008 35.7212ZM8.66601 31.5734C8.7844 31.1027 8.785 30.6562 8.66782 30.2339C8.54223 29.8094 8.31353 29.4396 7.98172 29.1244C7.64151 28.8072 7.21495 28.5844 6.70206 28.4563C6.18916 28.3281 5.71185 28.3249 5.27011 28.4468C4.82837 28.5687 4.45169 28.7872 4.14006 29.1024C3.82843 29.4176 3.61342 29.8105 3.49504 30.2812C3.37665 30.7518 3.37919 31.2036 3.50267 31.6365C3.62826 32.0609 3.85696 32.4307 4.18877 32.7459C4.52269 33.0527 4.94609 33.2701 5.45899 33.3983C5.97188 33.5265 6.45234 33.5349 6.90038 33.4235C7.34211 33.3017 7.7188 33.0831 8.03043 32.768C8.33576 32.4423 8.54762 32.0441 8.66601 31.5734Z" fill="black"/>
<path d="M8.89961 17.9983C9.24904 17.5676 9.63914 17.2587 10.0699 17.0716C10.4994 16.8723 10.9565 16.8177 11.4413 16.9079C11.9316 16.9914 12.4332 17.2398 12.946 17.6531L16.0332 20.1413L15.4517 20.8581L12.4354 18.427C11.8753 17.9757 11.3389 17.7771 10.8262 17.8314C10.3122 17.8735 9.85043 18.1469 9.44094 18.6517C9.13518 19.0286 8.94525 19.421 8.87114 19.8287C8.79574 20.2243 8.84033 20.6165 9.00491 21.0051C9.1682 21.3816 9.45228 21.733 9.85715 22.0593L12.6508 24.3109L12.0693 25.0277L6.75535 20.7448L7.31226 20.0583L8.7698 21.233L8.40642 21.1238C8.15829 20.6456 8.0764 20.1343 8.16077 19.5901C8.23838 19.0405 8.48466 18.5099 8.89961 17.9983Z" fill="black"/>
<path d="M19.2305 17.8418C18.6835 18.2087 18.1081 18.4173 17.5041 18.4676C16.9026 18.5058 16.3303 18.3939 15.7875 18.1319C15.2398 17.8627 14.7768 17.448 14.3985 16.8877C14.0154 16.3203 13.8044 15.7366 13.7653 15.1366C13.7263 14.5367 13.8402 13.9697 14.1072 13.4359C14.3742 12.902 14.7848 12.4492 15.339 12.0774C15.9004 11.7009 16.4795 11.4899 17.0762 11.4444C17.6801 11.3942 18.2499 11.5024 18.7856 11.7693C19.3285 12.0313 19.7914 12.446 20.1745 13.0135C20.5528 13.5738 20.7638 14.1575 20.8077 14.7646C20.854 15.3597 20.7424 15.9302 20.4731 16.4761C20.1989 17.0148 19.7848 17.4701 19.2305 17.8418ZM18.7723 17.163C19.1825 16.8878 19.4854 16.5542 19.6809 16.1622C19.8715 15.7631 19.9452 15.3379 19.9021 14.8868C19.8613 14.4237 19.693 13.973 19.3972 13.5349C19.0965 13.0895 18.7411 12.7644 18.3309 12.5595C17.9279 12.3498 17.5074 12.2613 17.0695 12.2942C16.6268 12.3198 16.2038 12.4679 15.8008 12.7382C15.3977 13.0086 15.1009 13.3433 14.9103 13.7425C14.7148 14.1345 14.635 14.5585 14.671 15.0144C14.7069 15.4703 14.8752 15.921 15.1759 16.3663C15.4717 16.8045 15.8271 17.1296 16.2421 17.3417C16.6524 17.5466 17.0788 17.6362 17.5216 17.6106C17.9595 17.5777 18.3764 17.4285 18.7723 17.163Z" fill="black"/>
<path d="M24.336 14.8097L20.2198 8.78344L21.0791 8.57562L24.8509 14.1769L24.4592 14.2716L25.2994 7.55489L26.0702 7.36846L29.8799 12.9606L29.4882 13.0553L30.3031 6.34467L31.1244 6.14602L30.2242 13.3855L29.3776 13.5903L25.7455 8.3431L26.0108 8.27893L25.1826 14.6049L24.336 14.8097Z" fill="black"/>
<path d="M38.1939 13.8561C37.643 13.7383 37.1382 13.5505 36.6795 13.2929C36.2226 13.0268 35.8799 12.7452 35.6512 12.4481L36.2113 11.8235C36.4387 12.0848 36.7479 12.3371 37.1388 12.5802C37.5315 12.8149 37.9609 12.9821 38.4271 13.0818C39.0627 13.2177 39.5413 13.2182 39.8629 13.0831C40.1864 12.9396 40.3837 12.7026 40.4548 12.3722C40.5077 12.1265 40.4682 11.9186 40.3364 11.7486C40.2149 11.572 40.0343 11.4226 39.7946 11.3004C39.5568 11.1698 39.2865 11.0455 38.9839 10.9276C38.6813 10.8097 38.3805 10.6833 38.0815 10.5484C37.791 10.4154 37.5323 10.2582 37.3054 10.0767C37.0803 9.88674 36.9119 9.66017 36.8001 9.39696C36.6968 9.13558 36.6862 8.81425 36.7683 8.43298C36.8467 8.06867 37.0187 7.76422 37.2841 7.51966C37.5495 7.2751 37.8945 7.11403 38.319 7.03644C38.7538 6.95218 39.2551 6.97079 39.8229 7.09224C40.2551 7.18469 40.6746 7.33645 41.0813 7.54751C41.4898 7.75011 41.8138 7.97451 42.0534 8.22073L41.5033 8.86084C41.2505 8.59405 40.9637 8.38204 40.6429 8.22481C40.324 8.0591 39.995 7.93999 39.656 7.86748C39.0543 7.73877 38.5865 7.74951 38.2528 7.89969C37.9293 8.04321 37.733 8.27595 37.6637 8.59791C37.6089 8.85208 37.6423 9.0675 37.7639 9.24417C37.8939 9.42264 38.0769 9.58143 38.3129 9.72054C38.5592 9.85299 38.8295 9.97726 39.1236 10.0934C39.4262 10.2113 39.7219 10.341 40.0106 10.4825C40.3096 10.6173 40.5725 10.7755 40.7994 10.957C41.0366 11.1318 41.2068 11.3499 41.3101 11.6113C41.4237 11.866 41.4413 12.1755 41.3629 12.5398C41.279 12.9296 41.0958 13.2449 40.8135 13.4858C40.5414 13.7201 40.1804 13.8733 39.7305 13.9455C39.2908 14.011 38.7786 13.9812 38.1939 13.8561Z" fill="black"/>
<path d="M48.3339 10.1516C48.8257 10.4081 49.2057 10.7284 49.4739 11.1125C49.7538 11.493 49.8968 11.9292 49.903 12.4211C49.9168 12.917 49.7707 13.4566 49.4646 14.0398L47.6223 17.5508L46.8038 17.1241L48.6039 13.6937C48.9382 13.0567 49.0285 12.493 48.8748 12.0024C48.7329 11.5081 48.3738 11.1107 47.7974 10.8102C47.367 10.5859 46.9442 10.4778 46.5288 10.486C46.1251 10.4906 45.7483 10.6118 45.3984 10.8496C45.0602 11.0838 44.7703 11.4311 44.5287 11.8916L42.8615 15.0687L42.043 14.642L46.5251 6.10056L47.3436 6.52727L45.1629 10.6829L45.1646 10.2879C45.5863 9.95065 46.0729 9.76942 46.6244 9.74421C47.18 9.71132 47.7498 9.84713 48.3339 10.1516Z" fill="black"/>
<path d="M50.5622 20.2557C50.094 19.7924 49.776 19.2705 49.6082 18.6898C49.4526 18.1092 49.4505 17.5279 49.6018 16.9461C49.7593 16.3582 50.0765 15.8247 50.5536 15.3458C51.0367 14.8607 51.5696 14.5406 52.1522 14.3855C52.7347 14.2304 53.3148 14.2314 53.8924 14.3883C54.4699 14.5453 54.9959 14.8585 55.4702 15.3279C55.9507 15.8034 56.2718 16.3284 56.4335 16.9029C56.6014 17.4836 56.6065 18.0617 56.449 18.6374C56.2977 19.2192 55.9804 19.7527 55.4973 20.2378C55.0202 20.7168 54.4874 21.0369 53.8987 21.1981C53.3223 21.3592 52.7392 21.3614 52.1493 21.2044C51.5656 21.0414 51.0366 20.7251 50.5622 20.2557ZM51.1402 19.6754C51.4913 20.0229 51.8789 20.254 52.3028 20.3687C52.7329 20.4773 53.1656 20.4665 53.6009 20.3365C54.0485 20.2064 54.4589 19.954 54.832 19.5794C55.2111 19.1987 55.4613 18.7879 55.5825 18.3469C55.7098 17.912 55.7144 17.4837 55.5962 17.062C55.4842 16.6341 55.2557 16.2495 54.9107 15.9081C54.5657 15.5667 54.1782 15.3418 53.7481 15.2332C53.3242 15.1185 52.8914 15.1231 52.4499 15.2471C52.0084 15.3711 51.5981 15.6234 51.2189 16.0041C50.8458 16.3787 50.5957 16.7895 50.4684 17.2367C50.3472 17.6776 50.3427 18.112 50.4547 18.5399C50.5729 18.9617 50.8013 19.3402 51.1402 19.6754Z" fill="black"/>
<path d="M55.3869 26.6486C55.1072 26.1298 54.9728 25.5972 54.9834 25.0508C55.0018 24.5003 55.1685 23.9784 55.4835 23.4853C55.8103 22.9957 56.3023 22.5749 56.9593 22.223C57.6164 21.8712 58.2361 21.6966 58.8184 21.6993C59.4084 21.698 59.9349 21.8437 60.3979 22.1364C60.8609 22.4292 61.2343 22.8388 61.518 23.3652C61.8264 23.9374 61.9721 24.5181 61.9549 25.1073C61.9495 25.7 61.7837 26.2509 61.4575 26.7599C61.1389 27.2647 60.6778 27.6788 60.0742 28.002C59.463 28.3293 58.8583 28.4861 58.2601 28.4722C57.6619 28.4583 57.1095 28.292 56.603 27.9734C56.1007 27.6624 55.6953 27.2208 55.3869 26.6486ZM51.5493 24.7073L59.7892 20.2947L60.2086 21.0728L58.3979 22.0425L57.1514 22.6068L55.9983 23.3718L51.9873 25.5198L51.5493 24.7073ZM56.078 26.2047C56.3083 26.632 56.6094 26.9623 56.9813 27.1957C57.3609 27.425 57.7799 27.5447 58.2382 27.5548C58.7042 27.5609 59.1702 27.4391 59.6363 27.1895C60.1023 26.94 60.4576 26.6219 60.7022 26.2353C60.9467 25.8488 61.0778 25.4344 61.0955 24.9924C61.1132 24.5503 61.0069 24.1157 60.7767 23.6885C60.5464 23.2612 60.2394 22.9292 59.8557 22.6922C59.4761 22.4629 59.0572 22.3432 58.5988 22.3331C58.1446 22.3306 57.6844 22.4541 57.2184 22.7037C56.7523 22.9533 56.3912 23.2696 56.1349 23.6526C55.8904 24.0391 55.7592 24.4535 55.7415 24.8955C55.7356 25.3411 55.8477 25.7775 56.078 26.2047Z" fill="black"/>
</svg>
