<?xml version="1.0" encoding="UTF-8"?><!DOCTYPE svg PUBLIC "-//W3C//DTD SVG 1.1//EN" "http://www.w3.org/Graphics/SVG/1.1/DTD/svg11.dtd"><svg xmlns="http://www.w3.org/2000/svg" xmlns:xlink="http://www.w3.org/1999/xlink"><defs>
<clipPath id="clip0_7_3">
<rect width="24" height="24" fill="white"/>
</clipPath>
</defs><symbol id="Burger" viewBox="0 0 24 24">
<g clip-path="url(#clip0_7_3)">
<path d="M3 4H21V6H3V4ZM9 11H21V13H9V11ZM3 18H21V20H3V18Z" fill="black"/>
</g>

</symbol><symbol id="facebook" viewBox="0 0 28 28">
<path d="M21.0003 2.33337H17.5003C15.9532 2.33337 14.4695 2.94796 13.3755 4.04192C12.2816 5.13588 11.667 6.61961 11.667 8.16671V11.6667H8.16699V16.3334H11.667V25.6667H16.3337V16.3334H19.8337L21.0003 11.6667H16.3337V8.16671C16.3337 7.85729 16.4566 7.56054 16.6754 7.34175C16.8942 7.12296 17.1909 7.00004 17.5003 7.00004H21.0003V2.33337Z" stroke="white" stroke-width="2" stroke-linecap="round" stroke-linejoin="round"/>
</symbol><symbol id="instagram" viewBox="0 0 28 28">
<path d="M19.833 2.33337H8.16634C4.94468 2.33337 2.33301 4.94505 2.33301 8.16671V19.8334C2.33301 23.055 4.94468 25.6667 8.16634 25.6667H19.833C23.0547 25.6667 25.6663 23.055 25.6663 19.8334V8.16671C25.6663 4.94505 23.0547 2.33337 19.833 2.33337Z" stroke="white" stroke-width="2" stroke-linecap="round" stroke-linejoin="round"/>
<path d="M18.6667 13.265C18.8106 14.2359 18.6448 15.2276 18.1927 16.0988C17.7406 16.9701 17.0253 17.6766 16.1485 18.1179C15.2718 18.5592 14.2782 18.7128 13.3091 18.5569C12.34 18.401 11.4447 17.9434 10.7506 17.2493C10.0566 16.5553 9.599 15.66 9.44306 14.6909C9.28712 13.7218 9.44073 12.7282 9.88203 11.8514C10.3233 10.9746 11.0299 10.2593 11.9011 9.80727C12.7724 9.35518 13.764 9.18934 14.735 9.33332C15.7254 9.48018 16.6423 9.94169 17.3503 10.6497C18.0583 11.3577 18.5198 12.2746 18.6667 13.265Z" stroke="white" stroke-width="2" stroke-linecap="round" stroke-linejoin="round"/>
<path d="M20.417 7.58337H20.4281" stroke="white" stroke-width="2" stroke-linecap="round" stroke-linejoin="round"/>
</symbol><symbol id="tel" viewBox="0 0 22.000000 22.000000">

<g transform="translate(0.000000,22.000000) scale(0.100000,-0.100000)" fill="#000000" stroke="none">
<path d="M135 190 c-16 -18 -17 -23 -5 -45 12 -23 12 -28 -8 -47 -19 -20 -24
-20 -47 -8 -23 12 -28 12 -48 -8 l-21 -22 26 -26 c34 -35 68 -27 124 30 55 54
64 89 33 122 -27 29 -31 29 -54 4z m45 -15 c28 -33 -34 -126 -94 -141 -34 -8
-68 18 -48 38 9 9 17 8 37 -2 24 -13 28 -12 57 18 29 28 31 33 19 56 -20 37 3
62 29 31z"/>
</g>
</symbol><symbol id="x" viewBox="0 0 24.000000 24.000000">

<g transform="translate(0.000000,24.000000) scale(0.100000,-0.100000)" fill="#000000" stroke="none">
</g>
</symbol></svg>